  0
SECTION
  2
HEADER
  9
$ACADVER
  1
AC1009
  9
$INSBASE
 10
0.0
 20
0.0
 30
0.0
  9
$EXTMIN
 10
0.0
 20
0.0
 30
0.0
  9
$EXTMAX
 10
0.0
 20
0.0
 30
0.0
  0
ENDSEC
  0
SECTION
  2
TABLES
  0
TABLE
  2
VPORT
 70
0
  0
ENDTAB
  0
TABLE
  2
LTYPE
 70
1
  0
LTYPE
  2
CONTINUOUS
 70
0
  3
Solid line
 72
65
 73
0
 40
0.0
  0
ENDTAB
  0
TABLE
  2
LAYER
 70
1
  0
LAYER
  2
0
 70
64
 62
7
  6
continuous
  0
ENDTAB
  0
TABLE
  2
STYLE
 70
1
  0
STYLE
  2
STANDARD
 70
0
 40
0
 41
1.0
 50
0.0
 71
0
 42
1
 3
ARIAL.TTF
 4

  0
ENDTAB
  0
TABLE
  2
VIEW
 70
0
  0
ENDTAB
  0
ENDSEC
  0
SECTION
  2
BLOCKS
  0
BLOCK
  8
0
  2
SKETCH
 70
0
 10
0.0
 20
0.0
 30
0.0
  3
SKETCH
  0
CIRCLE
  8
0
 62
7
 10
0.0
 20
0.0
 30
0.0
 40
6.75
  0
ARC
  8
0
 62
7
 10
10.565
 20
-13.95
 30
0.0
 40
2.0
 50
-31.6682432535
 51
54.7871744378
  0
ARC
  8
0
 62
7
 10
0.0
 20
0.0
 30
0.0
 40
17.0
 50
-46.4246698763
 51
46.4246698763
  0
ARC
  8
0
 62
7
 10
10.565
 20
13.95
 30
0.0
 40
2.0
 50
-54.7871744376
 51
160.510409086
  0
ARC
  8
0
 62
7
 10
0.0
 20
0.0
 30
0.0
 40
17.0
 50
59.298564773
 51
120.701435227
  0
ARC
  8
0
 62
7
 10
-10.565
 20
13.95
 30
0.0
 40
2.0
 50
19.4895909138
 51
-125.212825562
  0
ARC
  8
0
 62
7
 10
0.0
 20
0.0
 30
0.0
 40
17.0
 50
133.575330124
 51
-133.575330124
  0
ARC
  8
0
 62
7
 10
-10.565
 20
-13.95
 30
0.0
 40
2.0
 50
125.212825562
 51
-148.331756746
  0
LINE
  8
0
 62
7
 10
-14.300000108
 20
-15.0
 30
0.0
 11
-12.2672044531
 21
-15.0
 31
0.0
  0
ARC
  8
0
 62
7
 10
-14.299999979
 20
-16.0
 30
0.0
 40
1.0
 50
90.000007392
 51
-179.999992755
  0
LINE
  8
0
 62
7
 10
-15.299999979
 20
-16.0000001266
 30
0.0
 11
-15.299999979
 21
-31.0500000734
 31
0.0
  0
ARC
  8
0
 62
7
 10
-14.299999979
 20
-31.05
 30
0.0
 40
1.0
 50
-179.999995817
 51
-89.9999755237
  0
LINE
  8
0
 62
7
 10
-14.2999995518
 20
-32.05
 30
0.0
 11
14.3000001171
 21
-32.05
 31
0.0
  0
ARC
  8
0
 62
7
 10
14.300000021
 20
-31.05
 30
0.0
 40
1.0
 50
-89.9999944949
 51
-5.72728773125e-06
  0
LINE
  8
0
 62
7
 10
15.300000021
 20
-16.000000125
 30
0.0
 11
15.300000021
 21
-31.0500001
 31
0.0
  0
ARC
  8
0
 62
7
 10
14.300000021
 20
-16.0
 30
0.0
 40
1.0
 50
-7.14318281527e-06
 51
89.9999950131
  0
LINE
  8
0
 62
7
 10
12.2672044531
 20
-15.0
 30
0.0
 11
14.300000108
 21
-15.0
 31
0.0
  0
CIRCLE
  8
0
 62
7
 10
-10.565
 20
13.95
 30
0.0
 40
0.4
  0
CIRCLE
  8
0
 62
7
 10
-10.565
 20
-13.95
 30
0.0
 40
0.4
  0
CIRCLE
  8
0
 62
7
 10
10.565
 20
-13.95
 30
0.0
 40
0.4
  0
CIRCLE
  8
0
 62
7
 10
10.565
 20
13.95
 30
0.0
 40
0.4
  0
CIRCLE
  8
0
 62
7
 10
-9.935
 20
-29.54
 30
0.0
 40
0.25
  0
CIRCLE
  8
0
 62
7
 10
-9.935
 20
-27.64
 30
0.0
 40
0.25
  0
CIRCLE
  8
0
 62
7
 10
-9.935
 20
-25.74
 30
0.0
 40
0.25
  0
CIRCLE
  8
0
 62
7
 10
-9.935
 20
-23.84
 30
0.0
 40
0.25
  0
CIRCLE
  8
0
 62
7
 10
-8.035
 20
-29.54
 30
0.0
 40
0.25
  0
CIRCLE
  8
0
 62
7
 10
-8.035
 20
-27.64
 30
0.0
 40
0.25
  0
CIRCLE
  8
0
 62
7
 10
-8.035
 20
-25.74
 30
0.0
 40
0.25
  0
CIRCLE
  8
0
 62
7
 10
-8.035
 20
-23.84
 30
0.0
 40
0.25
  0
ENDBLK
  0
ENDSEC
  0
SECTION
  2
ENTITIES
  0
INSERT
  2
SKETCH
  8
0
 62
7
 10
0.0
 20
0.0
 30
0.0
  0
ENDSEC
  0
EOF
